<svg width="9" height="9" viewBox="0 0 9 9" fill="none" xmlns="http://www.w3.org/2000/svg">
  <path d="M8.73161 0H4.5627C4.41444 0 4.2943 0.120169 4.2943 0.268395V0.984115C4.2943 1.13234 4.41444 1.25251 4.5627 1.25251H6.86179L1.25251 6.86182V4.56275C1.25251 4.41453 1.13234 4.29436 0.984111 4.29436H0.268394C0.120133 4.29436 0 4.41453 0 4.56275V8.7316C0 8.87983 0.120133 9 0.268394 9H4.4373C4.58556 9 4.7057 8.87983 4.7057 8.7316V8.01588C4.7057 7.86766 4.58556 7.74749 4.4373 7.74749H2.13821L7.7475 2.13818V4.43728C7.7475 4.58551 7.86763 4.70568 8.01589 4.70568H8.73161C8.87987 4.70568 9 4.58551 9 4.43728V0.268395C9 0.120169 8.87987 0 8.73161 0Z" fill="#FF7A1B" />
</svg>