<svg width="10" height="12" viewBox="0 0 10 12" fill="none" xmlns="http://www.w3.org/2000/svg">
  <path d="M4.99999 5.86879C6.46177 5.86879 7.64689 4.55503 7.64689 2.93441C7.64689 1.31376 7.2578 0 4.99999 0C2.74219 0 2.35302 1.31376 2.35302 2.93441C2.35302 4.55503 3.53814 5.86879 4.99999 5.86879Z" fill="#FF7A1B" />
  <path d="M0.000520507 10.3492C-0.000381037 10.3214 6.97346e-05 10.2504 0.000520507 10.3492V10.3492Z" fill="#FF7A1B" />
  <path d="M9.99924 10.4264C9.99973 10.2387 10.0007 10.3994 9.99924 10.4264V10.4264Z" fill="#FF7A1B" />
  <path d="M9.99361 10.2308C9.94459 7.4076 9.54062 6.60315 6.44934 6.09394C6.44934 6.09394 6.01419 6.60003 4.99996 6.60003C3.98572 6.60003 3.5505 6.09394 3.5505 6.09394C0.492951 6.5976 0.0644174 7.39011 0.00807089 10.139C0.00345048 10.3635 0.00130932 10.3753 0.000482909 10.3492C0.000670731 10.3981 0.000896033 10.4884 0.000896033 10.6459C0.000896033 10.6459 0.736856 12 4.99996 12C9.26298 12 9.99902 10.6459 9.99902 10.6459C9.99902 10.5447 9.99909 10.4743 9.99921 10.4265C9.99838 10.4426 9.99673 10.4113 9.99361 10.2308Z" fill="#FF7A1B" />
</svg>