<svg width="10" height="10" viewBox="0 0 10 10" fill="none" xmlns="http://www.w3.org/2000/svg">
  <path d="M5 0C2.24302 0 0 2.24295 0 4.99997C0 7.75699 2.24302 10 5 10C7.75698 10 10 7.75699 10 4.99997C10 2.24295 7.75704 0 5 0ZM7.87109 4.15544L4.72984 7.29667C4.59628 7.43023 4.41873 7.50374 4.22986 7.50374C4.04099 7.50374 3.86344 7.43023 3.72987 7.29667L2.12891 5.69571C1.99535 5.56215 1.92178 5.3846 1.92178 5.19573C1.92178 5.00681 1.99535 4.82926 2.12891 4.6957C2.26243 4.56213 2.43997 4.48857 2.6289 4.48857C2.81777 4.48857 2.99537 4.56213 3.12888 4.69575L4.22981 5.79662L6.87102 3.15542C7.00458 3.02186 7.18213 2.94834 7.371 2.94834C7.55987 2.94834 7.73742 3.02186 7.87098 3.15542C8.14678 3.43121 8.14678 3.87975 7.87109 4.15544Z" fill="#FF7A1B" />
</svg>